<svg width="41" height="40" viewBox="0 0 41 40" fill="none" xmlns="http://www.w3.org/2000/svg">
<g clip-path="url(#clip0_2147_5033)">
<path d="M27.6751 26C27.4032 26 27.1425 26.1054 26.9503 26.2929C26.7581 26.4804 26.6501 26.7348 26.6501 27C26.6501 27.2652 26.7581 27.5196 26.9503 27.7071C27.1425 27.8946 27.4032 28 27.6751 28H31.7751C32.0469 28 32.3077 27.8946 32.4999 27.7071C32.6921 27.5196 32.8001 27.2652 32.8001 27C32.8001 26.7348 32.6921 26.4804 32.4999 26.2929C32.3077 26.1054 32.0469 26 31.7751 26H27.6751ZM4.1001 13.5C4.1001 12.0413 4.69405 10.6424 5.75128 9.61091C6.80852 8.57946 8.24244 8 9.7376 8H31.2626C32.7578 8 34.1917 8.57946 35.2489 9.61091C36.3061 10.6424 36.9001 12.0413 36.9001 13.5V26.5C36.9001 27.9587 36.3061 29.3576 35.2489 30.3891C34.1917 31.4205 32.7578 32 31.2626 32H9.7376C8.24244 32 6.80852 31.4205 5.75128 30.3891C4.69405 29.3576 4.1001 27.9587 4.1001 26.5V13.5ZM9.7376 10C8.78613 10 7.87364 10.3687 7.20085 11.0251C6.52807 11.6815 6.1501 12.5717 6.1501 13.5V16H34.8501V13.5C34.8501 12.5717 34.4721 11.6815 33.7993 11.0251C33.1266 10.3687 32.2141 10 31.2626 10H9.7376ZM34.8501 18H6.1501V26.5C6.1501 28.432 7.7573 30 9.7376 30H31.2626C32.2141 30 33.1266 29.6313 33.7993 28.9749C34.4721 28.3185 34.8501 27.4283 34.8501 26.5V18Z" fill="#323824"/>
</g>
<defs>
<clipPath id="clip0_2147_5033">
<rect width="41" height="40" fill="white"/>
</clipPath>
</defs>
</svg>
