<svg width="1727" height="256" viewBox="0 0 1727 256" fill="none" xmlns="http://www.w3.org/2000/svg">
<rect width="236.71" height="256" fill="url(#paint0_linear_1279_1049)"/>
<rect x="1727" y="256" width="236.71" height="256" transform="rotate(-180 1727 256)" fill="url(#paint1_linear_1279_1049)"/>
<line x1="201.328" y1="2" x2="201.328" y2="63" stroke="#D4D5AC" stroke-width="2"/>
<line x1="81" y1="2" x2="81" y2="63" stroke="#D4D5AC" stroke-width="2"/>
<line x1="322.642" y1="2" x2="322.642" y2="63" stroke="#D4D5AC" stroke-width="2"/>
<line x1="442.97" y1="2" x2="442.97" y2="63" stroke="#D4D5AC" stroke-width="2"/>
<line x1="563.298" y1="2" x2="563.298" y2="63" stroke="#D4D5AC" stroke-width="2"/>
<line x1="683.625" y1="2" x2="683.625" y2="63" stroke="#D4D5AC" stroke-width="2"/>
<line x1="803.953" y1="2" x2="803.953" y2="63" stroke="#D4D5AC" stroke-width="2"/>
<line x1="924.281" y1="2" x2="924.281" y2="63" stroke="#D4D5AC" stroke-width="2"/>
<line x1="1044.61" y1="2" x2="1044.61" y2="63" stroke="#D4D5AC" stroke-width="2"/>
<line x1="1164.94" y1="2" x2="1164.94" y2="63" stroke="#D4D5AC" stroke-width="2"/>
<line x1="1285.26" y1="2" x2="1285.26" y2="63" stroke="#D4D5AC" stroke-width="2"/>
<line x1="1405.59" y1="2" x2="1405.59" y2="63" stroke="#D4D5AC" stroke-width="2"/>
<line x1="1525.92" y1="2" x2="1525.92" y2="63" stroke="#D4D5AC" stroke-width="2"/>
<line x1="1646.25" y1="2" x2="1646.25" y2="63" stroke="#D4D5AC" stroke-width="2"/>
<line x1="226.972" y1="2" x2="226.972" y2="38" stroke="#D4D5AC" stroke-width="2"/>
<line x1="106.644" y1="2" x2="106.644" y2="38" stroke="#D4D5AC" stroke-width="2"/>
<line x1="346.313" y1="2" x2="346.313" y2="38" stroke="#D4D5AC" stroke-width="2"/>
<line x1="466.641" y1="2" x2="466.641" y2="38" stroke="#D4D5AC" stroke-width="2"/>
<line x1="586.969" y1="2" x2="586.969" y2="38" stroke="#D4D5AC" stroke-width="2"/>
<line x1="707.296" y1="2" x2="707.296" y2="38" stroke="#D4D5AC" stroke-width="2"/>
<line x1="827.625" y1="2" x2="827.625" y2="38" stroke="#D4D5AC" stroke-width="2"/>
<line x1="947.952" y1="2" x2="947.952" y2="38" stroke="#D4D5AC" stroke-width="2"/>
<line x1="1068.28" y1="2" x2="1068.28" y2="38" stroke="#D4D5AC" stroke-width="2"/>
<line x1="1188.61" y1="2" x2="1188.61" y2="38" stroke="#D4D5AC" stroke-width="2"/>
<line x1="1308.94" y1="2" x2="1308.94" y2="38" stroke="#D4D5AC" stroke-width="2"/>
<line x1="1429.26" y1="2" x2="1429.26" y2="38" stroke="#D4D5AC" stroke-width="2"/>
<line x1="1549.59" y1="2" x2="1549.59" y2="38" stroke="#D4D5AC" stroke-width="2"/>
<line x1="250.643" y1="2" x2="250.643" y2="38" stroke="#D4D5AC" stroke-width="2"/>
<line x1="130.315" y1="2" x2="130.315" y2="38" stroke="#D4D5AC" stroke-width="2"/>
<line x1="369.984" y1="2" x2="369.984" y2="38" stroke="#D4D5AC" stroke-width="2"/>
<line x1="490.312" y1="2" x2="490.312" y2="38" stroke="#D4D5AC" stroke-width="2"/>
<line x1="610.64" y1="2" x2="610.64" y2="38" stroke="#D4D5AC" stroke-width="2"/>
<line x1="730.968" y1="2" x2="730.968" y2="38" stroke="#D4D5AC" stroke-width="2"/>
<line x1="851.295" y1="2" x2="851.295" y2="38" stroke="#D4D5AC" stroke-width="2"/>
<line x1="971.623" y1="2" x2="971.623" y2="38" stroke="#D4D5AC" stroke-width="2"/>
<line x1="1091.95" y1="2" x2="1091.95" y2="38" stroke="#D4D5AC" stroke-width="2"/>
<line x1="1212.28" y1="2" x2="1212.28" y2="38" stroke="#D4D5AC" stroke-width="2"/>
<line x1="1332.61" y1="2" x2="1332.61" y2="38" stroke="#D4D5AC" stroke-width="2"/>
<line x1="1452.93" y1="2" x2="1452.93" y2="38" stroke="#D4D5AC" stroke-width="2"/>
<line x1="1573.26" y1="2" x2="1573.26" y2="38" stroke="#D4D5AC" stroke-width="2"/>
<line x1="274.313" y1="2" x2="274.313" y2="38" stroke="#D4D5AC" stroke-width="2"/>
<line x1="153.986" y1="2" x2="153.986" y2="38" stroke="#D4D5AC" stroke-width="2"/>
<line x1="393.655" y1="2" x2="393.655" y2="38" stroke="#D4D5AC" stroke-width="2"/>
<line x1="513.983" y1="2" x2="513.983" y2="38" stroke="#D4D5AC" stroke-width="2"/>
<line x1="634.311" y1="2" x2="634.311" y2="38" stroke="#D4D5AC" stroke-width="2"/>
<line x1="754.639" y1="2" x2="754.639" y2="38" stroke="#D4D5AC" stroke-width="2"/>
<line x1="874.966" y1="2" x2="874.966" y2="38" stroke="#D4D5AC" stroke-width="2"/>
<line x1="995.294" y1="2" x2="995.294" y2="38" stroke="#D4D5AC" stroke-width="2"/>
<line x1="1115.62" y1="2" x2="1115.62" y2="38" stroke="#D4D5AC" stroke-width="2"/>
<line x1="1235.95" y1="2" x2="1235.95" y2="38" stroke="#D4D5AC" stroke-width="2"/>
<line x1="1356.28" y1="2" x2="1356.28" y2="38" stroke="#D4D5AC" stroke-width="2"/>
<line x1="1476.61" y1="2" x2="1476.61" y2="38" stroke="#D4D5AC" stroke-width="2"/>
<line x1="1596.93" y1="2" x2="1596.93" y2="38" stroke="#D4D5AC" stroke-width="2"/>
<line x1="297.984" y1="2" x2="297.984" y2="38" stroke="#D4D5AC" stroke-width="2"/>
<line x1="177.657" y1="2" x2="177.657" y2="38" stroke="#D4D5AC" stroke-width="2"/>
<line x1="417.326" y1="2" x2="417.326" y2="38" stroke="#D4D5AC" stroke-width="2"/>
<line x1="537.654" y1="2" x2="537.654" y2="38" stroke="#D4D5AC" stroke-width="2"/>
<line x1="657.982" y1="2" x2="657.982" y2="38" stroke="#D4D5AC" stroke-width="2"/>
<line x1="778.31" y1="2" x2="778.31" y2="38" stroke="#D4D5AC" stroke-width="2"/>
<line x1="898.638" y1="2" x2="898.638" y2="38" stroke="#D4D5AC" stroke-width="2"/>
<line x1="1018.97" y1="2" x2="1018.97" y2="38" stroke="#D4D5AC" stroke-width="2"/>
<line x1="1139.29" y1="2" x2="1139.29" y2="38" stroke="#D4D5AC" stroke-width="2"/>
<line x1="1259.62" y1="2" x2="1259.62" y2="38" stroke="#D4D5AC" stroke-width="2"/>
<line x1="1379.95" y1="2" x2="1379.95" y2="38" stroke="#D4D5AC" stroke-width="2"/>
<line x1="1500.28" y1="2" x2="1500.28" y2="38" stroke="#D4D5AC" stroke-width="2"/>
<line x1="1620.6" y1="2" x2="1620.6" y2="38" stroke="#D4D5AC" stroke-width="2"/>
<line x1="1523.67" y1="256" x2="1523.67" y2="199" stroke="#D4D5AC" stroke-width="2"/>
<line x1="1644" y1="256" x2="1644" y2="199" stroke="#D4D5AC" stroke-width="2"/>
<line x1="1402.36" y1="256" x2="1402.36" y2="199" stroke="#D4D5AC" stroke-width="2"/>
<line x1="1282.03" y1="256" x2="1282.03" y2="199" stroke="#D4D5AC" stroke-width="2"/>
<line x1="1161.7" y1="256" x2="1161.7" y2="199" stroke="#D4D5AC" stroke-width="2"/>
<line x1="1041.38" y1="256" x2="1041.38" y2="199" stroke="#D4D5AC" stroke-width="2"/>
<line x1="921.047" y1="256" x2="921.047" y2="199" stroke="#D4D5AC" stroke-width="2"/>
<line x1="800.719" y1="256" x2="800.719" y2="199" stroke="#D4D5AC" stroke-width="2"/>
<line x1="680.392" y1="256" x2="680.392" y2="199" stroke="#D4D5AC" stroke-width="2"/>
<line x1="560.063" y1="256" x2="560.063" y2="199" stroke="#D4D5AC" stroke-width="2"/>
<line x1="439.736" y1="256" x2="439.736" y2="199" stroke="#D4D5AC" stroke-width="2"/>
<line x1="319.408" y1="256" x2="319.408" y2="199" stroke="#D4D5AC" stroke-width="2"/>
<line x1="199.08" y1="256" x2="199.08" y2="199" stroke="#D4D5AC" stroke-width="2"/>
<line x1="78.7524" y1="256" x2="78.7524" y2="199" stroke="#D4D5AC" stroke-width="2"/>
<line x1="1498.03" y1="256" x2="1498.03" y2="222.361" stroke="#D4D5AC" stroke-width="2"/>
<line x1="1618.36" y1="256" x2="1618.36" y2="222.361" stroke="#D4D5AC" stroke-width="2"/>
<line x1="1378.69" y1="256" x2="1378.69" y2="222.361" stroke="#D4D5AC" stroke-width="2"/>
<line x1="1258.36" y1="256" x2="1258.36" y2="222.361" stroke="#D4D5AC" stroke-width="2"/>
<line x1="1138.03" y1="256" x2="1138.03" y2="222.361" stroke="#D4D5AC" stroke-width="2"/>
<line x1="1017.7" y1="256" x2="1017.7" y2="222.361" stroke="#D4D5AC" stroke-width="2"/>
<line x1="897.376" y1="256" x2="897.376" y2="222.361" stroke="#D4D5AC" stroke-width="2"/>
<line x1="777.048" y1="256" x2="777.048" y2="222.361" stroke="#D4D5AC" stroke-width="2"/>
<line x1="656.72" y1="256" x2="656.72" y2="222.361" stroke="#D4D5AC" stroke-width="2"/>
<line x1="536.393" y1="256" x2="536.393" y2="222.361" stroke="#D4D5AC" stroke-width="2"/>
<line x1="416.064" y1="256" x2="416.064" y2="222.361" stroke="#D4D5AC" stroke-width="2"/>
<line x1="295.737" y1="256" x2="295.737" y2="222.361" stroke="#D4D5AC" stroke-width="2"/>
<line x1="175.409" y1="256" x2="175.409" y2="222.361" stroke="#D4D5AC" stroke-width="2"/>
<line x1="1474.36" y1="256" x2="1474.36" y2="222.361" stroke="#D4D5AC" stroke-width="2"/>
<line x1="1594.69" y1="256" x2="1594.69" y2="222.361" stroke="#D4D5AC" stroke-width="2"/>
<line x1="1355.02" y1="256" x2="1355.02" y2="222.361" stroke="#D4D5AC" stroke-width="2"/>
<line x1="1234.69" y1="256" x2="1234.69" y2="222.361" stroke="#D4D5AC" stroke-width="2"/>
<line x1="1114.36" y1="256" x2="1114.36" y2="222.361" stroke="#D4D5AC" stroke-width="2"/>
<line x1="994.033" y1="256" x2="994.033" y2="222.361" stroke="#D4D5AC" stroke-width="2"/>
<line x1="873.705" y1="256" x2="873.705" y2="222.361" stroke="#D4D5AC" stroke-width="2"/>
<line x1="753.377" y1="256" x2="753.377" y2="222.361" stroke="#D4D5AC" stroke-width="2"/>
<line x1="633.049" y1="256" x2="633.049" y2="222.361" stroke="#D4D5AC" stroke-width="2"/>
<line x1="512.722" y1="256" x2="512.722" y2="222.361" stroke="#D4D5AC" stroke-width="2"/>
<line x1="392.394" y1="256" x2="392.394" y2="222.361" stroke="#D4D5AC" stroke-width="2"/>
<line x1="272.066" y1="256" x2="272.066" y2="222.361" stroke="#D4D5AC" stroke-width="2"/>
<line x1="151.738" y1="256" x2="151.738" y2="222.361" stroke="#D4D5AC" stroke-width="2"/>
<line x1="1450.69" y1="256" x2="1450.69" y2="222.361" stroke="#D4D5AC" stroke-width="2"/>
<line x1="1571.01" y1="256" x2="1571.01" y2="222.361" stroke="#D4D5AC" stroke-width="2"/>
<line x1="1331.35" y1="256" x2="1331.35" y2="222.361" stroke="#D4D5AC" stroke-width="2"/>
<line x1="1211.02" y1="256" x2="1211.02" y2="222.361" stroke="#D4D5AC" stroke-width="2"/>
<line x1="1090.69" y1="256" x2="1090.69" y2="222.361" stroke="#D4D5AC" stroke-width="2"/>
<line x1="970.362" y1="256" x2="970.362" y2="222.361" stroke="#D4D5AC" stroke-width="2"/>
<line x1="850.034" y1="256" x2="850.034" y2="222.361" stroke="#D4D5AC" stroke-width="2"/>
<line x1="729.706" y1="256" x2="729.706" y2="222.361" stroke="#D4D5AC" stroke-width="2"/>
<line x1="609.378" y1="256" x2="609.378" y2="222.361" stroke="#D4D5AC" stroke-width="2"/>
<line x1="489.051" y1="256" x2="489.051" y2="222.361" stroke="#D4D5AC" stroke-width="2"/>
<line x1="368.723" y1="256" x2="368.723" y2="222.361" stroke="#D4D5AC" stroke-width="2"/>
<line x1="248.395" y1="256" x2="248.395" y2="222.361" stroke="#D4D5AC" stroke-width="2"/>
<line x1="128.067" y1="256" x2="128.067" y2="222.361" stroke="#D4D5AC" stroke-width="2"/>
<line x1="1427.02" y1="256" x2="1427.02" y2="222.361" stroke="#D4D5AC" stroke-width="2"/>
<line x1="1547.34" y1="256" x2="1547.34" y2="222.361" stroke="#D4D5AC" stroke-width="2"/>
<line x1="1307.67" y1="256" x2="1307.67" y2="222.361" stroke="#D4D5AC" stroke-width="2"/>
<line x1="1187.35" y1="256" x2="1187.35" y2="222.361" stroke="#D4D5AC" stroke-width="2"/>
<line x1="1067.02" y1="256" x2="1067.02" y2="222.361" stroke="#D4D5AC" stroke-width="2"/>
<line x1="946.691" y1="256" x2="946.691" y2="222.361" stroke="#D4D5AC" stroke-width="2"/>
<line x1="826.363" y1="256" x2="826.363" y2="222.361" stroke="#D4D5AC" stroke-width="2"/>
<line x1="706.035" y1="256" x2="706.035" y2="222.361" stroke="#D4D5AC" stroke-width="2"/>
<line x1="585.707" y1="256" x2="585.707" y2="222.361" stroke="#D4D5AC" stroke-width="2"/>
<line x1="465.379" y1="256" x2="465.379" y2="222.361" stroke="#D4D5AC" stroke-width="2"/>
<line x1="345.052" y1="256" x2="345.052" y2="222.361" stroke="#D4D5AC" stroke-width="2"/>
<line x1="224.724" y1="256" x2="224.724" y2="222.361" stroke="#D4D5AC" stroke-width="2"/>
<line x1="104.396" y1="256" x2="104.396" y2="222.361" stroke="#D4D5AC" stroke-width="2"/>
<defs>
<linearGradient id="paint0_linear_1279_1049" x1="236.71" y1="128" x2="-1.2287e-05" y2="128" gradientUnits="userSpaceOnUse">
<stop stop-color="#D4D5AC" stop-opacity="0"/>
<stop offset="1" stop-color="#323824"/>
</linearGradient>
<linearGradient id="paint1_linear_1279_1049" x1="1963.71" y1="384" x2="1727" y2="384" gradientUnits="userSpaceOnUse">
<stop stop-color="#D4D5AC" stop-opacity="0"/>
<stop offset="1" stop-color="#323824"/>
</linearGradient>
</defs>
</svg>
