<svg width="1728" height="2378" viewBox="0 0 1728 2378" fill="none" xmlns="http://www.w3.org/2000/svg">
<path d="M-77 952.618H1824M-77 719.576H1824M-77 486.533H1824M-77 253.49H1824M-77 20.4477H1824M-77 1069.14H1824M-77 836.097H1824M-77 603.054H1824M-77 370.012H1824M-77 136.969H1824M51.8044 0L51.8045 1204.49M168.326 0L168.326 1204.49M284.847 0L284.847 1204.49M401.368 0L401.369 1204.49M517.89 0L517.89 1204.49M634.411 0L634.411 1204.49M750.932 0L750.933 1204.49M867.454 0L867.454 1204.49M983.975 0V1204.49M1100.5 0V1204.49M1215.71 0V1204.49M1332.23 0V1204.49M1446.13 0V1204.49M1562.65 0V1204.49M1683.1 0V1204.49M-77 2125.62H1824M-77 1892.58H1824M-77 1659.53H1824M-77 1426.49H1824M-77 1193.45H1824M-77 2242.14H1824M-77 2009.1H1824M-77 1776.05H1824M-77 1543.01H1824M-77 1309.97H1824M51.8044 1173L51.8045 2377.49M168.326 1173L168.326 2377.49M284.847 1173L284.847 2377.49M401.368 1173L401.369 2377.49M517.89 1173L517.89 2377.49M634.411 1173L634.411 2377.49M750.932 1173L750.933 2377.49M867.454 1173L867.454 2377.49M983.975 1173V2377.49M1100.5 1173V2377.49M1215.71 1173V2377.49M1332.23 1173V2377.49M1446.13 1173V2377.49M1562.65 1173V2377.49M1683.1 1173V2377.49" stroke="white" stroke-opacity="0.27"/>
</svg>
