<svg width="54" height="53" viewBox="0 0 54 53" fill="none" xmlns="http://www.w3.org/2000/svg">
<g opacity="0.83">
<path d="M19.3208 18.1879L25.1663 6.63387C25.3365 6.29949 25.5982 6.01825 25.9221 5.82169C26.246 5.62512 26.6192 5.521 27 5.521C27.3809 5.521 27.7541 5.62512 28.078 5.82169C28.4019 6.01825 28.6636 6.29949 28.8338 6.63387L34.6793 18.1879L47.7473 20.0517C48.1242 20.103 48.4789 20.2573 48.7708 20.4969C49.0626 20.7366 49.28 21.0519 49.398 21.407C49.516 21.7621 49.5299 22.1426 49.4382 22.5051C49.3464 22.8675 49.1527 23.1974 48.8791 23.457L39.4245 32.4449L41.6565 45.1428C41.9423 46.7725 40.1873 48.0136 38.6866 47.2451L27 41.2473L15.3113 47.2451C13.8128 48.0158 12.0578 46.7725 12.3435 45.1406L14.5755 32.4427L5.12105 23.4547C4.84877 23.195 4.65619 22.8655 4.56522 22.5036C4.47424 22.1418 4.48851 21.7622 4.6064 21.4079C4.7243 21.0537 4.94108 20.739 5.23213 20.4996C5.52317 20.2603 5.87679 20.1058 6.2528 20.0539L19.3208 18.1879Z" fill="#323824" stroke="#323824" stroke-width="1.5" stroke-linecap="round" stroke-linejoin="round"/>
</g>
</svg>
