<svg width="61" height="61" viewBox="0 0 61 61" fill="none" xmlns="http://www.w3.org/2000/svg">
<path d="M14.6399 52.0074C14.0469 52.0074 13.5275 51.7727 13.0819 51.3033C12.6346 50.834 12.4109 50.3087 12.4109 49.7275V44.0774C12.4109 40.8477 13.414 37.9951 15.4202 35.5196C17.4281 33.044 20.0088 31.4648 23.1621 30.7819C21.7168 31.7986 20.5968 33.0787 19.8021 34.6224C19.0074 36.166 18.6092 37.8113 18.6075 39.5583V49.7173C18.6075 50.1104 18.671 50.5027 18.7981 50.8941C18.9252 51.2872 19.1048 51.6575 19.3369 52.0048L14.6399 52.0074ZM22.5394 52.0074C21.9311 52.0074 21.4033 51.7812 20.956 51.3287C20.5086 50.8763 20.285 50.3426 20.285 49.7275V39.5608C20.285 37.0191 21.1618 34.874 22.9156 33.1253C24.671 31.375 26.8196 30.4998 29.3613 30.4998H39.5534C42.0679 30.4998 44.2004 31.375 45.9507 33.1253C47.7011 34.8757 48.5754 37.0217 48.5737 39.5634V42.9438C48.5737 45.4854 47.6994 47.6315 45.9507 49.3818C44.2021 51.1322 42.056 52.0074 39.5127 52.0074H22.5394ZM30.4999 25.9451C28.1396 25.9451 26.1367 25.1258 24.4914 23.4873C22.8478 21.8471 22.026 19.8409 22.026 17.4686C22.026 15.0964 22.8478 13.0911 24.4914 11.4525C26.135 9.814 28.1379 8.99388 30.4999 8.99219C32.862 8.9905 34.8648 9.81061 36.5084 11.4525C38.152 13.0944 38.9738 15.0998 38.9738 17.4686C38.9738 19.8375 38.152 21.8429 36.5084 23.4848C34.8648 25.1267 32.862 25.9468 30.4999 25.9451Z" fill="white"/>
</svg>
