<svg width="1126" height="1256" viewBox="0 0 1126 1256" fill="none" xmlns="http://www.w3.org/2000/svg">
<g filter="url(#sel-glow-blur)">
<g clip-path="url(#sel-glow-clip)">
<g transform="matrix(0.0080507 0.631975 -1.10397 0.0140631 574.685 707.561)">
<rect width="872.654" height="521.23" fill="url(#sel-diamond-grad)"/>
<rect width="872.654" height="521.23" transform="scale(1 -1)" fill="url(#sel-diamond-grad)"/>
<rect width="872.654" height="521.23" transform="scale(-1 1)" fill="url(#sel-diamond-grad)"/>
<rect width="872.654" height="521.23" transform="scale(-1)" fill="url(#sel-diamond-grad)"/>
</g>
<path d="M556.747 765.313C297.611 770.265 82.3486 667.308 7.10938 615.211V1251.21H1118.11V615.211C1038.96 663.182 815.882 760.361 556.747 765.313Z" fill="url(#sel-diamond-grad)"/>
</g>
</g>
<g filter="url(#sel-beam-blur)">
<path d="M504.343 770.094L615.861 770.093L971.108 36.7985L103.108 36.7985L504.343 770.094Z" fill="url(#sel-beam-grad)" fill-opacity="0.52"/>
</g>
<g filter="url(#sel-arc-shadow)">
<path d="M1115.85 616.394C1117.55 615.471 1119.67 616.099 1120.6 617.797C1121.52 619.496 1120.89 621.621 1119.2 622.544L1117.52 619.469L1115.85 616.394ZM5.59059 622.401C3.9708 621.345 3.5127 619.177 4.5676 617.558C5.62238 615.938 7.7906 615.481 9.41051 616.537L7.50048 619.469L5.59059 622.401ZM1117.52 619.469L1119.2 622.544C815.752 787.492 537.377 787.511 334.876 746.26C233.643 725.638 151.374 694.704 94.3975 668.918C65.9075 656.024 43.7356 644.414 28.6724 636.018C21.1406 631.821 15.3854 628.426 11.5056 626.076C9.56575 624.901 8.09465 623.988 7.10473 623.365C6.6097 623.054 6.23503 622.815 5.98217 622.653C5.85574 622.572 5.75976 622.51 5.69436 622.468C5.66172 622.447 5.63675 622.431 5.61945 622.42C5.6108 622.414 5.6035 622.409 5.59923 622.407C5.59387 622.403 5.59059 622.401 7.50048 619.469C9.41051 616.537 9.41099 616.537 9.41331 616.538C9.41672 616.541 9.42098 616.543 9.4278 616.548C9.4412 616.557 9.46227 616.57 9.49114 616.589C9.54863 616.626 9.63681 616.683 9.75532 616.759C9.99235 616.91 10.3511 617.139 10.8298 617.44C11.7872 618.042 13.2249 618.935 15.1303 620.089C18.9414 622.398 24.6237 625.749 32.0784 629.904C46.9882 638.214 68.9859 649.734 97.2817 662.541C153.877 688.155 235.644 718.902 336.271 739.4C537.488 780.39 814.125 780.408 1115.85 616.394L1117.52 619.469Z" fill="url(#sel-arc-grad)" fill-opacity="0.25"/>
</g>
<g opacity="0.4">
<g opacity="0.8" filter="url(#sel-spot-blur)">
<ellipse cx="560.012" cy="653.621" rx="194.28" ry="201.356" fill="black"/>
</g>
</g>
<circle cx="1077.24" cy="661.793" r="5.17599" fill="#D4D5AC" fill-opacity="0.64"/>
<circle cx="298.338" cy="762.817" r="5.17599" fill="#D4D5AC" fill-opacity="0.64"/>
<circle cx="894.048" cy="739.216" r="5.17599" fill="#D4D5AC" fill-opacity="0.64"/>
<circle cx="111.556" cy="700.807" r="5.17599" fill="#D4D5AC" fill-opacity="0.64"/>
<circle cx="689.415" cy="784.669" r="5.17599" fill="#D4D5AC" fill-opacity="0.64"/>
<circle cx="503.708" cy="788.751" r="5.17599" fill="#D4D5AC" fill-opacity="0.64"/>
<circle cx="601.477" cy="789.9" r="5.17599" fill="#D4D5AC" fill-opacity="0.64"/>
<circle cx="1009.37" cy="696.301" r="5.17599" fill="#D4D5AC" fill-opacity="0.64"/>
<circle cx="223.574" cy="740.958" r="5.17599" fill="#D4D5AC" fill-opacity="0.64"/>
<circle cx="820.539" cy="759.021" r="5.17599" fill="#D4D5AC" fill-opacity="0.64"/>
<circle cx="41.8889" cy="670.104" r="5.17599" fill="#D4D5AC" fill-opacity="0.64"/>
<circle cx="418.592" cy="781.853" r="5.17599" fill="#D4D5AC" fill-opacity="0.64"/>
<circle cx="946.111" cy="721.605" r="9.77688" fill="#D4D5AC" fill-opacity="0.64"/>
<circle cx="163.143" cy="719.763" r="9.77688" fill="#D4D5AC" fill-opacity="0.64"/>
<circle cx="753.424" cy="770.774" r="9.77688" fill="#D4D5AC" fill-opacity="0.64"/>
<circle cx="350.947" cy="770.563" r="9.77688" fill="#D4D5AC" fill-opacity="0.64"/>
<defs>
<filter id="sel-glow-blur" x="3.10938" y="611.211" width="1119" height="644" filterUnits="userSpaceOnUse" color-interpolation-filters="sRGB">
<feGaussianBlur stdDeviation="2"/>
</filter>
<clipPath id="sel-glow-clip">
<path d="M556.747 765.313C297.611 770.265 82.3486 667.308 7.10938 615.211V1251.21H1118.11V615.211C1038.96 663.182 815.882 760.361 556.747 765.313Z"/>
</clipPath>
<linearGradient id="sel-diamond-grad" x1="0" y1="0" x2="500" y2="500" gradientUnits="userSpaceOnUse">
<stop stop-color="#D4D5AC" stop-opacity="0.68"/>
<stop offset="0.716346" stop-color="#323824" stop-opacity="0"/>
</linearGradient>
<filter id="sel-beam-blur" x="66.3084" y="-0.003" width="941.6" height="806.897" filterUnits="userSpaceOnUse" color-interpolation-filters="sRGB">
<feGaussianBlur stdDeviation="18.4"/>
</filter>
<linearGradient id="sel-beam-grad" x1="536.696" y1="1341.19" x2="537.132" y2="36.7988" gradientUnits="userSpaceOnUse">
<stop offset="0.194524" stop-color="#D4D5AC"/>
<stop offset="0.9375" stop-color="white" stop-opacity="0"/>
</linearGradient>
<filter id="sel-arc-shadow" x="-9.3" y="602.669" width="1143.62" height="179.803" filterUnits="userSpaceOnUse" color-interpolation-filters="sRGB">
<feOffset dy="4"/>
<feGaussianBlur stdDeviation="2"/>
<feColorMatrix type="matrix" values="0 0 0 0 0 0 0 0 0 0 0 0 0 0 0 0 0 0 0.25 0"/>
</filter>
<linearGradient id="sel-arc-grad" x1="1117.27" y1="693.643" x2="7.25798" y2="689.816" gradientUnits="userSpaceOnUse">
<stop offset="0.0156651" stop-color="#323824"/>
<stop offset="0.471196" stop-color="#D4D5AC"/>
<stop offset="1" stop-color="#323824"/>
</linearGradient>
<filter id="sel-spot-blur" x="215.732" y="302.266" width="688.56" height="702.711" filterUnits="userSpaceOnUse" color-interpolation-filters="sRGB">
<feGaussianBlur stdDeviation="75"/>
</filter>
</defs>
</svg>
